/* XPM */
static char *cubridmanager[] = {
/* columns rows colors chars-per-pixel */
"32 32 64 1",
"  c #000000",
". c #FFFFFF",
"X c #FF2F33",
"o c #FF2E33",
"O c #FF2938",
"+ c #FF2B36",
"@ c #FF2739",
"# c #D030A5",
"$ c #C3379D",
"% c #D035AC",
"& c #C2369F",
"* c #CD35AC",
"= c #CD36AC",
"- c #BF34A9",
"; c #BE34A8",
": c #BE34A9",
"> c #BD34A9",
", c #BD33AC",
"< c #BC32AF",
"1 c #BB32B0",
"2 c #002382",
"3 c #002381",
"4 c #002887",
"5 c #002786",
"6 c #002483",
"7 c #002D8E",
"8 c #002C8A",
"9 c #002886",
"0 c #002885",
"q c #002F8E",
"w c #002D8B",
"e c #008EFF",
"r c #0092FF",
"t c #0096FC",
"y c #0091F8",
"u c #0095E5",
"i c #0099E4",
"p c #00DB38",
"a c #00D937",
"s c #00D936",
"d c #00DC2D",
"f c #00DB31",
"g c #DFB007",
"h c #DEB007",
"j c #DBB008",
"k c #FFB400",
"l c #F2AF03",
"z c #FFAE00",
"x c #FFAF00",
"c c #FFB000",
"v c #FFAC00",
"b c #FFAD00",
"n c #FF6800",
"m c #FF6500",
"M c #FF6303",
"N c #FF6603",
"B c #FF6305",
"V c #FF6005",
"C c None",
"Z c #000000",
"A c #000000",
"S c #000000",
"D c #000000",
"F c #000000",
/* pixels */
"CCCCCCCCCCCCCCCCCCCCCCCCCCCCCCCC",
"CCCCCCCCCCCCCCCCCCCCCCCCCCCCCCCC",
"CCCCCCCCCCCCCCCCCC++CCCCCCCCCCCC",
"CCCCCCCCCCCCCCCCC++CCCCCCCCCCCCC",
"CCCCCCCCCCCCCCCC+++CCCCCCCCCCCCC",
"CCCCCCCCCCCCCCCOOOO@CCCCCCCCCCCC",
"CCCCCCCCCCCCCCCXXXoCCCCCCCCCCCCC",
"CCCCCCCCCCCCCCCCCCCCCCCCCCCCCCCC",
"CCCCCCCCCCCC&CnNNNMCbCCCCCCCCCCC",
"CCCCCCCCCCC1&CmBBBVCbxCCCCCCCCCC",
"CCCCCCCCCC:1&CmBBBVCbxzCCCCCCCCC",
"CCCCCCCCC::1&CmBBBVCbxzzCCCCCCCC",
"CCCCCCCC-::1$CmBBBVCbxzzzCCCCCCC",
"C44449CC%::,,CCCCCCCzxzzzzCCCCCC",
"CC44440CC*:;<CCCCCCCkzzzzzzCCCCC",
"CCC44445CC%:>CCCCCCCczzzzzzzCCCC",
"CCCC44449CC=:CCCCCCCzzzzzzzzzCCC",
"CCCCC44623CC#CCCCCCCvvvvvbzzzzCC",
"CCCCCC68q7wCCCCCCCCCCghhjlbzzzzC",
"CCCCCCCCCCCCCCCCCCCCCCCCCCCCCCCC",
"CCCCCCCCtttriCdsssssppppCCCCCCCC",
"CCCCCCCCCyyeuCdssssssssCCCCCCCCC",
"CCCCCCCCCCyeuCdsssssssCCCCCCCCCC",
"CCCCCCCCCCCeuCdssssssCCCCCCCCCCC",
"CCCCCCCCCCCCuCdsssssCCCCCCCCCCCC",
"CCCCCCCCCCCCCCdssssCCCCCCCCCCCCC",
"CCCCCCCCCCCCCCfsssCCCCCCCCCCCCCC",
"CCCCCCCCCCCCCCassCCCCCCCCCCCCCCC",
"CCCCCCCCCCCCCCssCCCCCCCCCCCCCCCC",
"CCCCCCCCCCCCCCsCCCCCCCCCCCCCCCCC",
"CCCCCCCCCCCCCCCCCCCCCCCCCCCCCCCC",
"CCCCCCCCCCCCCCCCCCCCCCCCCCCCCCCC"
};
